<svg enable-background="new 0 0 40 40" height="40" viewBox="0 0 40 40" width="40" xmlns="http://www.w3.org/2000/svg"><g fill="#1a171b"><path d="m15.201 30.464c-.061 0-.119-.012-.172-.033-1.615-.001-2.809-.029-3.912-.056-.943-.023-1.818-.044-2.831-.044-3.307 0-5.999-2.69-5.999-5.998 0-2.004.97-3.832 2.611-4.951-.134-.652-.202-1.319-.202-1.989 0-5.435 4.422-9.858 9.859-9.858 3.64 0 6.974 2.014 8.684 5.186 1.123-1.149 2.647-1.795 4.279-1.795 3.307 0 5.999 2.69 5.999 5.998 0 .494-.059.981-.176 1.454 2.561.718 4.372 3.069 4.372 5.775 0 3.308-2.691 6-5.999 6-1.542 0-5.043.08-8.428.158-3.417.08-6.644.153-8.085.153zm-.646-21.998c-4.923 0-8.928 4.004-8.928 8.927 0 .707.084 1.412.249 2.095.047.197-.038.403-.212.507-1.532.927-2.447 2.549-2.447 4.338 0 2.794 2.273 5.067 5.068 5.067 1.021 0 1.903.021 2.854.044 1.105.026 2.304.055 3.93.055.061 0 .118.012.172.033 1.453-.002 4.792-.078 8.022-.152 3.391-.078 6.897-.158 8.45-.158 2.795 0 5.068-2.274 5.068-5.069 0-2.432-1.73-4.525-4.114-4.977-.132-.025-.247-.106-.315-.223-.067-.116-.081-.256-.037-.384.18-.526.271-1.079.271-1.644 0-2.794-2.273-5.067-5.068-5.067-1.585 0-3.049.722-4.018 1.981-.101.13-.264.202-.423.178-.163-.019-.303-.122-.37-.272-1.439-3.206-4.638-5.279-8.152-5.279z"/><path d="m17.858 21.514c.045 0 .085.018.117.055l.323.348c-.245.283-.543.506-.894.665-.35.159-.773.238-1.27.238-.43 0-.82-.075-1.172-.224s-.652-.358-.9-.628c-.249-.27-.442-.592-.578-.97-.136-.376-.205-.791-.205-1.243s.072-.867.214-1.244c.143-.377.342-.701.601-.971.259-.271.568-.481.928-.631.361-.149.758-.223 1.193-.223.427 0 .804.069 1.131.205.326.136.613.322.862.556l-.268.373c-.017.028-.038.051-.065.069s-.063.027-.107.027c-.05 0-.112-.027-.184-.082-.073-.055-.167-.115-.284-.183-.117-.067-.264-.127-.44-.182s-.392-.082-.649-.082c-.31 0-.593.055-.851.162-.256.107-.478.263-.663.467-.185.203-.33.452-.433.745s-.154.623-.154.992c0 .374.054.707.161 1s.254.541.44.743.404.357.657.463.526.159.819.159c.179 0 .34-.01.483-.032.144-.02.276-.053.398-.098.122-.044.234-.101.339-.169.105-.069.209-.151.313-.245.044-.039.091-.06.138-.06z"/><path d="m24.667 19.756c0 .449-.071.861-.214 1.238-.143.374-.343.698-.603.969-.259.271-.572.482-.935.631-.364.149-.767.223-1.208.223s-.843-.074-1.206-.223-.674-.36-.933-.631c-.26-.271-.461-.594-.603-.969-.143-.376-.214-.789-.214-1.238 0-.45.071-.862.214-1.238.143-.375.344-.7.603-.971.259-.272.571-.484.933-.634.362-.151.765-.226 1.206-.226.442 0 .844.075 1.208.226.363.15.676.363.935.634.26.272.461.596.603.971.143.376.214.788.214 1.238zm-.834 0c0-.369-.05-.7-.151-.992-.101-.294-.243-.542-.427-.743-.184-.203-.408-.358-.67-.467-.263-.109-.556-.164-.88-.164-.321 0-.612.055-.875.164s-.486.264-.671.467c-.186.202-.329.45-.43.743-.1.293-.151.623-.151.992 0 .368.051.698.151.99.101.291.243.538.43.741.185.203.409.357.671.464.263.108.554.162.875.162.323 0 .617-.054.88-.162.262-.107.485-.262.67-.464.185-.203.326-.45.427-.741.102-.292.151-.622.151-.99z"/><path d="m27.469 25.13c.047 0 .085.014.113.042.027.027.042.064.042.107v.264h-2.334v-.149c0-.031.006-.063.019-.095.013-.033.034-.064.061-.091l1.12-1.125c.093-.095.177-.185.254-.273.076-.087.141-.174.195-.263.054-.088.094-.177.124-.267.029-.09.044-.186.044-.29 0-.102-.016-.192-.049-.269-.033-.078-.076-.142-.133-.192-.056-.05-.123-.088-.199-.114-.076-.025-.159-.038-.247-.038-.089 0-.171.013-.246.04-.075.025-.141.062-.199.108-.057.046-.106.101-.145.165s-.066.134-.083.21c-.019.057-.046.095-.079.114-.034.019-.08.024-.141.016l-.227-.04c.023-.159.067-.3.134-.423.065-.122.149-.225.249-.309.1-.082.214-.145.342-.189.129-.043.268-.064.418-.064.148 0 .286.022.414.065.129.044.241.107.334.191.095.085.169.187.223.307s.08.257.08.41c0 .13-.019.252-.058.362-.039.112-.092.218-.158.318-.067.102-.144.2-.231.296s-.18.193-.277.291l-.923.941c.065-.017.131-.032.198-.042.066-.011.131-.016.193-.016h1.172z"/></g></svg>